<?xml version="1.0" encoding="UTF-8" standalone="no"?>
<!-- Created with Inkscape (http://www.inkscape.org/) -->

<svg
   version="1.1"
   id="svg76"
   width="2048"
   height="2048"
   viewBox="0 0 2048 2048"
   sodipodi:docname="candado_verde.jpeg"
   xmlns:inkscape="http://www.inkscape.org/namespaces/inkscape"
   xmlns:sodipodi="http://sodipodi.sourceforge.net/DTD/sodipodi-0.dtd"
   xmlns="http://www.w3.org/2000/svg"
   xmlns:svg="http://www.w3.org/2000/svg">
  <defs
     id="defs80" />
  <sodipodi:namedview
     id="namedview78"
     pagecolor="#ffffff"
     bordercolor="#000000"
     borderopacity="0.25"
     inkscape:showpageshadow="2"
     inkscape:pageopacity="0.0"
     inkscape:pagecheckerboard="0"
     inkscape:deskcolor="#d1d1d1"
     showgrid="false" />
  <g
     inkscape:groupmode="layer"
     inkscape:label="Image"
     id="g82"
     transform="translate(-6.593604,-2.2920156)">
    <g
       id="g244"
       transform="translate(6.593604,2.2920156)">
      <path
         style="fill:#f4f4f4"
         d="M 1024,2048 H 0 V 1024 0 h 1024 1024 v 1024 1024 z"
         id="path248" />
      <path
         style="fill:#12662a"
         d="m 1028,1794.4065 -11.5,0.4591 -7.5,-0.8653 -7.5,-0.8653 -7.5,-1.5544 -7.5,-1.5544 -9.76282,-3.1227 -9.76281,-3.1226 -8.23719,-4.1834 -8.23718,-4.1834 -29,-18.8175 -29,-18.8175 -12,-7.7729 -12,-7.7729 -14.5,-9.268 -14.5,-9.2679 -36.5,-23.6769 -36.5,-23.6769 -38,-24.3282 -38,-24.3282 -20,-13.0166 -20,-13.0165 -25.33218,-16.3318 -25.33218,-16.3319 -5.98545,-4.6057 -5.98545,-4.6057 -8.18237,-8.2016 -8.18237,-8.2015 -6.75348,-9.438 -6.75347,-9.4379 -5.393,-11 -5.393,-11 -2.59728,-8 -2.59727,-8 -2.21529,-9 -2.21528,-9 -0.34364,-156.5 -0.34365,-156.5 1.04196,-9.0795 1.04195,-9.0795 2.44749,-9.6483 2.4475,-9.6483 4.1104,-10.2722 4.1104,-10.2722 4.11948,-7 4.11948,-7 6.89165,-9.3313 6.89166,-9.3313 8.69169,-8.5664 8.6917,-8.5664 20,-13.169 20,-13.169 37,-23.83806 37,-23.83802 17,-10.99384 17,-10.99383 8,-5.18341 8,-5.18342 22.27333,-14.41801 L 800.04666,892.5 831.50234,872 862.95803,851.5 880.22901,840.35756 897.5,829.21512 l 25.92165,-16.73016 25.92164,-16.73017 8.57836,-4.26488 8.57835,-4.26487 8.81159,-3.10614 8.8116,-3.10613 10.1884,-2.20263 10.18841,-2.20262 20,-0.0538 20,-0.0538 7,1.369 7,1.369 10.5585,3.36918 10.5585,3.36919 10.4415,5.27916 10.4415,5.27916 36.9277,23.87447 36.9278,23.87447 29.3186,19.10818 29.3186,19.10819 20.7536,13.48094 20.7537,13.48095 50,32.42508 50,32.42509 38.5,24.94766 38.5,24.94766 6.7461,5.5065 6.746,5.5066 7.0138,8.0637 7.0138,8.0637 5.8634,8.576 5.8635,8.5761 4.5107,9 4.5106,9 3.1059,8.801 3.106,8.801 2.2227,9.699 2.2227,9.699 0.3392,155 0.3391,155 -1.1319,9.949 -1.1319,9.949 -2.4784,9.551 -2.4784,9.551 -4.1212,10.3556 -4.1212,10.3556 -5.1462,8.7088 -5.1462,8.7088 -5.216,6.9356 -5.2159,6.9356 -9.2081,9.3382 -9.2081,9.3382 -17.5,11.5479 -17.5,11.5478 -3.5,2.2584 -3.5,2.2583 -25,16.271 -25,16.2709 -58,37.1875 -58,37.1874 -17,10.9573 -17,10.9572 -41,26.3459 -41,26.346 -18,11.5812 -18,11.5813 -8.5,4.2895 -8.5,4.2896 -10.5,3.3779 -10.5,3.3778 -9.5,1.569 -9.5,1.5691 -11.5,0.4591 z m -0.5,-90.0648 7,-0.4799 7.5,-1.9875 7.5,-1.9874 6.155,-3.3723 6.1551,-3.3724 13.8449,-8.9197 13.845,-8.9198 36.5,-23.3313 36.5,-23.3313 63.1598,-40.7567 63.1598,-40.7566 11.3402,-7.3892 11.3402,-7.3891 13,-8.3444 13,-8.3443 27,-17.4972 27,-17.4973 3.8865,-3.0248 3.8865,-3.0247 5.2847,-6.407 5.2847,-6.4069 3.5142,-7.2067 3.5141,-7.2067 2.0533,-7.8392 2.0533,-7.8392 0.056,-146.676 0.056,-146.676 -1.0021,-4.429 -1.002,-4.4291 -2.0127,-5.8204 -2.0126,-5.8204 -3.6395,-5.9913 -3.6395,-5.9912 -5.5672,-6.0133 -5.5672,-6.0132 -11.573,-7.5425 -11.5729,-7.5424 -11.5,-7.4548 -11.5,-7.4548 -31.5,-20.343 -31.5,-20.343 -39.7924,-25.83485 -39.7925,-25.83485 -8.2075,-5.34983 -8.2076,-5.34983 -35,-22.75754 -35,-22.75755 -29.253,-19.10223 -29.253,-19.10224 -4.247,-2.47503 -4.247,-2.47502 -7.7491,-2.5898 -7.7491,-2.58979 -7.487,-0.94926 -7.487,-0.94926 -8.0657,1.01137 -8.0658,1.01136 -8.4475,3.05666 -8.4475,3.05667 -20.80582,13.65566 L 949.38967,900.5 930.44484,912.82181 911.5,925.14363 879.77758,945.82181 848.05515,966.5 l -15.27757,9.81154 -15.27758,9.81153 -31,20.07523 -31,20.0752 -19,12.2155 -19,12.2154 -15,9.8135 -15,9.8135 -16.5,10.4215 -16.5,10.4214 -4.23124,3.4644 -4.23124,3.4645 -4.55329,5.9173 -4.55329,5.9173 -3.4387,7.2811 -3.4387,7.2811 -1.72649,6.5 -1.7265,6.5 -0.0503,146.5 -0.0503,146.5 1.83207,7.8123 1.83207,7.8123 4.38244,8.7543 4.38245,8.7544 6.00833,6.557 6.00833,6.5571 11.27716,7.306 11.27715,7.306 16.5,10.6854 16.5,10.6854 30.5,19.7815 30.5,19.7816 6.5,4.2016 6.5,4.2017 26,16.7778 26,16.7779 9,5.7645 9,5.7646 42,27.2726 42,27.2726 27.28727,17.9082 27.28727,17.9082 5.3128,2.3496 5.3128,2.3496 4.28801,1.1546 4.288,1.1546 6.112,0.8351 6.1119,0.8351 z M 983.65556,1448.652 973,1449.3039 v -67.5449 -67.545 l -1.58179,-0.607 -1.58178,-0.607 H 953.41821 937 v -81.5 -81.5 h 87 87 v 81.5 81.5 l -11.75,0.1711 -11.75,0.171 -1.5,0.2227 -1.5,0.2226 -4.75,0.1063 L 1075,1314 v 67 67 h -40.3444 -40.34447 z M 654.45274,939 h -0.5245 l 0.33641,-154.25 0.33641,-154.25 2.16476,-13.72486 2.16477,-13.72486 2.61801,-11.67285 2.61801,-11.67286 2.96268,-10.33498 2.96268,-10.33498 3.87917,-10.45681 3.87916,-10.4568 4.57331,-10.8105 4.57331,-10.8105 7.3808,-13.62897 7.38081,-13.62896 8.45287,-12.87104 8.45287,-12.87103 8.19966,-10.5 8.19966,-10.5 11.57508,-12.28572 11.57509,-12.28572 11.14312,-9.81477 11.14312,-9.81478 12.86684,-9.55176 12.86684,-9.55176 13.44748,-8.04961 13.44747,-8.0496 15.18568,-7.4547 15.18569,-7.45471 16.5,-5.98721 16.5,-5.98721 12.5,-3.54369 12.5,-3.54369 13,-2.50047 13,-2.50046 11.10557,-1.53713 11.10556,-1.53713 16.89444,-1.15009 16.89443,-1.15009 26,0.5565 26,0.5565 11.5,1.59227 11.5,1.59227 11.0911,1.99249 11.091,1.9925 11.909,2.91376 11.9089,2.91376 15.3275,5.07722 15.3276,5.07721 11.1724,4.57301 11.1725,4.573 15.5,7.90576 15.5,7.90576 13.5,8.8429 13.5,8.8429 13,10.34196 13,10.34196 16.054,16.07929 16.0539,16.07928 10.226,13.18197 10.2261,13.18197 8.5034,13.31803 8.5035,13.31803 6.3539,12.5 6.3539,12.5 4.5368,10.5 4.5367,10.5 5.0447,15 5.0447,15 3.0707,13.80485 3.0706,13.80485 2.3873,14.19515 2.3872,14.19515 1.0733,14.68739 1.0733,14.68739 V 791.43739 930 h -0.4005 -0.4006 l -10.8494,-6.83396 -10.8495,-6.83396 -12,-7.83726 -12,-7.83727 -41.5,-26.95973 -41.5,-26.95972 -15.2978,-9.5161 -15.2978,-9.5161 0.1674,-88.60295 0.1674,-88.60295 -1.1874,-8.5 -1.1875,-8.5 -1.8853,-8.5 -1.8854,-8.5 -2.4815,-7.58094 -2.4816,-7.58093 -4.6333,-10.57981 -4.6334,-10.57981 -5.036,-8.83925 -5.0361,-8.83926 -7.0406,-9.5 -7.0407,-9.5 -11.1052,-11.04348 -11.1052,-11.04348 -10.8312,-8.0942 -10.8312,-8.0942 -9.4794,-5.25137 -9.4793,-5.25138 -8.6895,-3.74448 -8.6894,-3.74448 -9,-3.01189 -9,-3.01188 -11.5,-2.57138 -11.5,-2.57139 -9,-1.02499 -9,-1.02499 h -12.5 -12.5 l -9,1.00312 -9,1.00312 -10.4656,2.0524 -10.4656,2.05239 -11.0344,3.56191 -11.0344,3.5619 -9.75798,4.32074 -9.75799,4.32074 -9.36107,5.50928 -9.36107,5.50929 -10.01879,7.45623 -10.01879,7.45624 -7.27354,6.83811 -7.27354,6.83812 -7.45516,8.5 -7.45515,8.5 -7.32347,11 -7.32347,11 -6.0204,12.5 -6.02041,12.5 -3.483,10.5 -3.48301,10.5 -2.01851,10 -2.01851,10 -1.03724,11 -1.03723,11 -8.3e-4,85.62679 -8.4e-4,85.6268 -9.75,5.80684 -9.75,5.80684 -12,7.65627 -12,7.65628 -26.5,16.98603 -26.5,16.98603 -33.76137,22.17406 L 654.97725,939 Z m 95.87718,-97.67507 1.17008,-0.69432 19.17453,-12.77736 19.17453,-12.77735 0.43797,-83.28795 0.43797,-83.28795 1.1886,-8 1.1886,-8 1.51165,-7.5 1.51165,-7.5 2.01719,-7 2.01719,-7 3.50877,-10 3.50877,-10 5.35608,-11 5.35608,-11 6.44541,-10.1648 6.44541,-10.16479 6.00309,-7.83521 6.00309,-7.8352 7.4375,-8.17816 7.43749,-8.17815 9.91921,-8.6932 9.91922,-8.6932 12.5,-8.26404 12.5,-8.26405 9.5,-4.9538 9.5,-4.9538 10,-4.07097 10,-4.07097 10.5,-2.97657 10.5,-2.97657 4.59973,-1.08982 4.59973,-1.08982 12.40027,-2.05333 12.40027,-2.05332 15,-0.60681 15,-0.60681 12,1.17138 12,1.17138 12,2.42741 12,2.4274 10.5127,3.02082 10.5126,3.02082 10.4874,4.07556 10.4873,4.07557 10.2014,5.38652 10.2013,5.38653 10.4915,7.039 10.4914,7.039 8.8072,7.40659 8.8072,7.4066 9.6244,9.8594 9.6243,9.85941 6.0051,8 6.005,8 5.781,9.5 5.7809,9.5 5.2097,11 5.2096,11 3.7554,10 3.7555,10 2.8639,11.5 2.8639,11.5 1.6918,10 1.6919,10 0.5688,83.33576 0.5688,83.33575 17,10.85842 17,10.85842 0.2911,-83.19418 0.2911,-83.19417 -1.0414,-16.65567 -1.0415,-16.65567 -2.5847,-15.30986 -2.5847,-15.30986 -3.3958,-11.79804 -3.3959,-11.79804 -4.5607,-11.13546 -4.5608,-11.13546 -4.4273,-8.83011 -4.4274,-8.83011 -5.5839,-9.16572 -5.5839,-9.16572 -5.6696,-7.53309 -5.6696,-7.53309 -8.5275,-9.50278 -8.5275,-9.50278 -11.1605,-9.64871 -11.1606,-9.64872 -8.8394,-6.03915 -8.8395,-6.03914 -10.883,-6.25546 -10.883,-6.25546 -12.936,-5.88105 -12.9361,-5.88104 -10.6499,-3.56315 -10.6498,-3.56315 -12.0311,-2.94182 -12.0311,-2.94182 -14,-2.20332 -14,-2.20332 -33,0.0145 -33,0.0145 -14,2.19941 -14,2.19941 -11.55762,2.95499 -11.55761,2.95499 -8.44239,2.65913 -8.44238,2.65913 -15,6.42524 -15,6.42525 -10,5.65258 -10,5.65258 -9.5,6.43417 -9.5,6.43416 -10,8.23851 -10,8.23851 -8,8.38484 -8,8.38483 -6.42605,8 -6.42605,8 -7.19135,11 -7.19135,11 -6.26655,12.5 -6.26656,12.5 -4.24456,11 -4.24455,11 -3.0887,11 -3.08869,11 -2.51133,13.70033 -2.51132,13.70032 -0.79813,15.29968 -0.79813,15.29967 0.35658,88.75962 0.35658,88.75963 1.17008,-0.69432 z"
         id="path246" />
    </g>
  </g>
</svg>
