<?xml version="1.0" encoding="UTF-8" standalone="no"?>
<!-- Created with Inkscape (http://www.inkscape.org/) -->

<svg
   version="1.1"
   id="svg46"
   width="2048"
   height="2048"
   viewBox="0 0 2048 2048"
   sodipodi:docname="cuadrado_verde.svg"
   inkscape:version="1.2.2 (b0a8486541, 2022-12-01)"
   xmlns:inkscape="http://www.inkscape.org/namespaces/inkscape"
   xmlns:sodipodi="http://sodipodi.sourceforge.net/DTD/sodipodi-0.dtd"
   xmlns="http://www.w3.org/2000/svg"
   xmlns:svg="http://www.w3.org/2000/svg">
  <defs
     id="defs50" />
  <sodipodi:namedview
     id="namedview48"
     pagecolor="#ffffff"
     bordercolor="#000000"
     borderopacity="0.25"
     inkscape:showpageshadow="2"
     inkscape:pageopacity="0.0"
     inkscape:pagecheckerboard="0"
     inkscape:deskcolor="#d1d1d1"
     showgrid="false"
     inkscape:zoom="0.40820312"
     inkscape:cx="1028.8995"
     inkscape:cy="1027.6746"
     inkscape:window-width="1920"
     inkscape:window-height="1011"
     inkscape:window-x="0"
     inkscape:window-y="32"
     inkscape:window-maximized="1"
     inkscape:current-layer="g52" />
  <g
     inkscape:groupmode="layer"
     inkscape:label="Image"
     id="g52"
     transform="translate(4.8495799,3.2187496)">
    <g
       id="g214"
       transform="translate(-4.8495799,-3.2187496)">
      <path
         style="fill:#f1f1f1"
         d="M 1024,2048 H 0 V 1024 0 h 1024 1024 v 1024 1024 z"
         id="path218" />
      <path
         style="fill:#168e4e"
         d="m 1293,1635.2224 -255.5,0.2776 -85.75,-0.2556 -85.75,-0.2556 V 1567.4944 1500 H 1158.5 1451 V 1222.6637 945.32732 l 0.6623,-37.66366 L 1452.3246,870 H 1521.1623 1590 v 382.5 382.5 l -20.75,-0.028 -20.75,-0.028 -255.5,0.2777 z m -269,-183.4038 -271.5,-0.1071 -11,-0.7075 -11,-0.7075 -8.0655,-2.1073 -8.06549,-2.1073 -6.78879,-3.0459 -6.78878,-3.0459 -8.14572,-5.3719 -8.14572,-5.3718 -5.7065,-5.1644 -5.7065,-5.1644 -6.07849,-8.0668 -6.07849,-8.0668 -4.91722,-10.142 -4.91722,-10.142 -1.98464,-7.6972 -1.98465,-7.6973 -1.10932,-9.8027 -1.10933,-9.8028 0.32776,-297 0.32775,-297 1.80259,-7.5 1.80258,-7.5 3.27372,-8.74194 3.27371,-8.74193 4.89213,-8.17361 4.89212,-8.17362 8.39511,-8.8675 8.39511,-8.86751 8.21593,-5.4667 8.21594,-5.46669 8.51196,-3.98884 8.51196,-3.98884 8.877,-2.26141 L 733.5,663.5 h 290.5 290.5 l 8.3316,2.29213 8.3317,2.29214 8.6683,3.74194 8.6684,3.74194 7.174,4.64658 7.174,4.64657 7.4682,7.09408 7.4682,7.09407 4.981,7.22528 4.9811,7.22527 3.5085,7 3.5086,7 2.5657,8.13549 2.5657,8.13549 1.0891,8.36451 1.089,8.36451 -0.2865,301.5 -0.2866,301.5 -2.7509,10 -2.751,10 -3.9069,8.154 -3.9069,8.1539 -3.5163,5.4969 -3.5163,5.4969 -6.8259,7.2664 -6.8258,7.2663 -7.8884,5.8712 -7.8884,5.8712 -8.1116,3.9088 -8.1116,3.9089 -8.8902,2.561 -8.8903,2.5609 -11.1097,0.9546 -11.1098,0.9546 z M 1023.6716,1268 H 1131 v -0.6223 -0.6223 l -5.5258,-24.1277 -5.5258,-24.1277 -4.0828,-18 -4.0828,-18 -4.8272,-19.5 -4.8272,-19.5 -5.6161,-25 -5.6161,-25 -4.4481,-19.1135 L 1082,1055.273 v -1.499 -1.499 l 6.8083,-5.0627 6.8084,-5.0628 6.5391,-6.9318 6.5391,-6.9318 4.6096,-6.4598 4.6096,-6.4597 4.0685,-7.9332 4.0685,-7.9332 2.4831,-7.82906 2.4831,-7.82907 1.4914,-8.55192 1.4913,-8.55193 V 958.61901 950.5 l -1.5361,-8.78167 -1.5361,-8.78166 -3.0728,-8.71834 -3.0728,-8.71833 -2.0133,-4 -2.0133,-4 -5.2625,-8.1124 -5.2625,-8.1124 -6.7877,-7.19541 -6.7878,-7.1954 -7.9648,-6.00165 -7.9648,-6.00165 -7.6095,-3.82178 -7.6096,-3.82178 -8.3643,-2.63857 -8.3643,-2.63857 -9.1357,-1.59598 -9.1357,-1.59599 -12,0.54083 -12,0.54082 -10,2.56974 -10,2.56974 -11,5.46595 -11,5.46596 -8.11043,6.498 -8.11042,6.498 -5.97231,6.79127 -5.97231,6.79127 -4.2936,6.38117 -4.2936,6.38116 -3.94247,8.41303 -3.94248,8.41302 -2.62819,9.70581 -2.6282,9.70581 0.0249,17 0.0249,17 2.60328,9.70581 2.60327,9.70581 4.03243,8.60498 4.03243,8.605 4.76844,7.1892 4.76844,7.1892 7.97547,8.3226 7.97547,8.3226 6.29247,4.6203 6.29247,4.6202 v 1.4239 1.424 l -7.54594,32.1332 -7.54595,32.1332 -5.89847,25 -5.89847,25 -8.04839,35 -8.04839,35 -3.33558,14.25 -3.33557,14.25 h 107.3284 z m -495.74809,-23.2432 -68.5765,0.2569 -0.6735,-0.6735 L 458,1243.6667 V 860.33333 477 h 378 378 v 69 69 l -220.75,0.0266 -220.75,0.0266 -82.81338,-0.0526 -82.81338,-0.0526 -4.93505,0.65466 -4.93505,0.65465 -0.25157,314.12138 L 596.5,1244.5 Z"
         id="path216" />
    </g>
  </g>
</svg>
