<svg xmlns="http://www.w3.org/2000/svg" width="992" height="1341.93"><path d="m2657.97 1256.33-.75.22-18.5-15.07-18.5-15.06-17.5-14.1-17.5-14.1-15.5-12.6-15.5-12.62-27.5-22.1-27.5-22.08-27.89-22.35-27.89-22.36-9.21-7.5-9.22-7.5-25.9-21.05-25.89-21.05-15.38-12.45-15.38-12.45-24.62-19.87-24.62-19.88-31.5-25.31-31.5-25.31-28-22.55-28-22.55v-1.89l9.5-6.72 9.5-6.73 9.5-6.7 9.5-6.72 42.37-30.22 42.38-30.23 14.97-10.91 14.98-10.92 6.65 5.24 6.65 5.23 28 22.46 28 22.46 13 10.51 13 10.51 7.5 6.11 7.5 6.12 21 16.89 21 16.89 11.5 9.6 11.5 9.6 13 10.3 13 10.3 21.36 17.14 21.35 17.15 29.71 24.02 29.7 24.01 12.44 10.58 12.44 10.59 7.5 7.95 7.5 7.96 57 58.78 57 58.79v1.77l-38.63 30.78-38.62 30.77-24.12 19-24.13 19zm164.25-132.76-1-.04-17-18.1-17-18.1-16.5-17.13-16.5-17.12-29.3-30.9-29.3-30.9 1.3-1.18 1.3-1.19 40-31.66 40-31.67 15.5-12.55 15.5-12.55 24-19.32 24-19.32 20.5-16.67 20.5-16.66 44.23-35.47 44.23-35.47 1.35-.52 1.35-.52 12.42 8.69 12.42 8.68 24 17.07 24 17.07 39.5 28.37 39.5 28.37.3.81.3.82-20.3 16.32-20.3 16.32-27 22.03-27 22.03-22.34 18-22.34 18-6.38 5-6.37 5-16.79 13.63-16.78 13.62-16.5 13.3-16.5 13.31-17.37 14.07-17.38 14.07-32.62 26.25-32.62 26.25-1-.04zm-659.9-302.96h-.6v-906h697.01l-.25 69.25-.26 69.25-238 .18-238 .17-19.35.08-19.34.07.2 89.25.2 89.25-.1 228.05-.11 228.04-8.25 6.03-8.25 6.03-19 13.85-19 13.84-8 5.83-8 5.82-23.6 17.35-23.58 17.34-31.56 23.16-31.56 23.16zm990.65-.03-.75-.04-27-19.98-27-19.98-42.5-31.3-42.5-31.31-20.5-14.9-20.5-14.9-.74-1.03-.74-1.02.39-118.5.4-118.5-.56-89.25-.55-89.25h-545.7v-176h729v726l-.75-.04zm-494.75-14.97h-130.5v-2.09l4.94-20.7 4.95-20.7 3.5-15.5 3.5-15.5 4.57-19.5 4.57-19.5 2.94-12.5 2.93-12.5 8.2-34.5 8.2-34.5.35-2.5.35-2.5-9.07-6.49-9.07-6.48-9.22-9.52-9.23-9.52-6.68-10.06-6.68-10.06-3.9-8.44-3.88-8.44-2.67-7.77-2.67-7.78-2.04-9.22-2.03-9.23-.55-17.5-.54-17.5 2.1-12.32 2.11-12.33 3.05-9.17 3.05-9.18 4.93-10 4.93-10 6.73-9.33 6.72-9.34 8.56-8.7 8.55-8.72 8.94-6.66 8.95-6.66 11.55-5.95 11.56-5.95 8.62-3.02 8.62-3.02 9.9-2.12 9.9-2.11 9.48-.76 9.48-.77 11 .74 11 .74 9.68 2.02 9.69 2.02 7.81 2.62 7.82 2.62 12.5 6.44 12.5 6.44 7 5.18 7 5.17 11.6 11.56 11.6 11.56 6.03 9.04 6.03 9.03 4.24 8.44 4.25 8.44 3.8 11.6 3.82 11.6 1.56 10.56 1.57 10.55-.01 11.87-.01 11.87-1.5 9.96-1.5 9.96-2.15 8.04-2.16 8.04-4.22 10.5-4.23 10.5-3.54 6.23-3.55 6.22-4.81 6.78-4.8 6.77-8.52 8.87-8.5 8.86-7.74 5.83-7.73 5.83-1.57.87-1.57.88 5 20.93 4.98 20.93 6.07 25.5 6.07 25.5 7.48 31.5 7.48 31.5 6.51 27.26 6.51 27.26v1.98h-130.5z" style="display:inline;fill:#165694" transform="translate(-2161.72 85.39)"/></svg>